# xmcd
#
# Track frame offsets: 
#        150
#        63208
#        120608
#        198760
#        297595
#
# Disc length: 4693 seconds
#
# Revision: 1
# Processed by: cddbd v1.5.2PL0 Copyright (c) Steve Scherf et al.
# Submitted via: ExactAudioCopy v0.95b4
#
DISCID=45125305
DTITLE=Massoud Shaari, Arash Mitooie, Hamsaz Ensemble - In the Shade o
DTITLE=f the Wind
DYEAR=2007
DGENRE=Persian
TTITLE0=Hamsaz
TTITLE1=Ashin
TTITLE2=Existence
TTITLE3=In the Shade of the Wind
TTITLE4=DATA
EXTD=
EXTT0=
EXTT1=
EXTT2=
EXTT3=
EXTT4=
PLAYORDER=
